<svg width="48" height="48" viewBox="0 0 48 48" fill="none" xmlns="http://www.w3.org/2000/svg">
<path d="M25.5 25.016L42.5 18.216V29.5218C41.4898 28.875 40.2886 28.5 39 28.5C35.4102 28.5 32.5 31.4102 32.5 35C32.5 38.5898 35.4102 41.5 39 41.5C42.5898 41.5 45.5 38.5898 45.5 35V15.8925C45.5 13.6068 45.5 11.6899 45.3392 10.1626C45.3164 9.94678 45.2896 9.73218 45.26 9.53194C45.105 8.48852 44.8312 7.51514 44.3028 6.7023C44.0386 6.29588 43.7106 5.92962 43.3022 5.61478C43.2256 5.55576 43.146 5.49854 43.0638 5.4432L43.0472 5.43216C41.6328 4.4908 40.0426 4.55812 38.4046 4.97554C36.8204 5.37922 34.8564 6.2013 32.448 7.20938L28.26 8.9623C27.131 9.43474 26.1746 9.83502 25.424 10.2496C24.6252 10.6907 23.9372 11.211 23.4212 11.9862C22.9054 12.7615 22.691 13.597 22.5926 14.5041C22.5 15.3566 22.5 16.3934 22.5 17.6172V33.5218C21.4896 32.875 20.2886 32.5 19 32.5C15.4101 32.5 12.5 35.4102 12.5 39C12.5 42.5898 15.4101 45.5 19 45.5C22.5898 45.5 25.5 42.5898 25.5 39V25.016Z" fill="#0EB2A4"/>
<path d="M15.5 4C15.5 3.17158 14.8284 2.5 14 2.5C13.1716 2.5 12.5 3.17158 12.5 4V15.5218C11.4897 14.875 10.2886 14.5 9 14.5C5.41014 14.5 2.5 17.4101 2.5 21C2.5 24.5898 5.41014 27.5 9 27.5C12.5899 27.5 15.5 24.5898 15.5 21V10.009C16.897 11.0183 18.5591 11.5 20 11.5C20.8284 11.5 21.5 10.8284 21.5 10C21.5 9.17158 20.8284 8.5 20 8.5C19.0913 8.5 17.9326 8.14778 17.0232 7.39674C16.1568 6.68122 15.5 5.5957 15.5 4Z" fill="#0EB2A4"/>
</svg>
